<?xml version="1.0" encoding="UTF-8"?>
<svg xmlns="http://www.w3.org/2000/svg" id="a" width="865.76" height="682.89" viewBox="0 0 865.76 682.89">
  <g>
    <path d="M370.28,340.49s-8.01,9.93-16.24,11.78c-.24,.05-.47-.14-.45-.38,.23-4.02,2.65-32.27,24.83-47.28,4.41-2.99,4.08-9.57-.66-11.99l-9.25-4.72s49,3,80.83,11.53c0,0,27.9,3.46,58.17-8.53l12-5s22.81,7.28,30,25c3.77,10.17-2.86,26.65-11.11,35.12-.15,.15-.39,.16-.54,.01-1.75-1.66-11.36-10.91-13.41-16.24l7.29-2.66s-.72-18.7-15.71-30.61l-77.27,41.59-55.1-32.72s-14.4,13.16-17.83,32.72l4.46,2.38Z" fill="#d6ccd7"></path>
    <path d="M353.95,352.78c-.2,0-.4-.07-.56-.21-.21-.18-.32-.44-.31-.71,.19-3.27,2.51-32.41,25.05-47.67,1.95-1.32,3.02-3.49,2.88-5.82-.14-2.28-1.45-4.27-3.49-5.31l-11.39-5.81,2.4,.15c.49,.03,49.41,3.1,80.93,11.55,.21,.02,28.06,3.29,57.86-8.52l12.16-5.07,.17,.06c.23,.07,23.11,7.56,30.31,25.29,3.82,10.31-2.85,27.06-11.21,35.66-.34,.35-.88,.36-1.24,.03-1.89-1.79-11.45-11.02-13.54-16.42l-.18-.48,7.42-2.71c-.2-2.63-1.98-18.95-15.24-29.68l-77.22,41.57-55.02-32.67c-1.96,1.91-14.14,14.32-17.35,31.83l4.68,2.5-.38,.47c-.33,.41-8.22,10.09-16.52,11.96-.06,.01-.13,.02-.19,.02Zm16.95-64.22l7.07,3.61c2.36,1.21,3.87,3.5,4.04,6.14,.17,2.68-1.07,5.19-3.32,6.71-21.79,14.75-24.34,42.76-24.6,46.72,6.9-1.65,13.72-9.16,15.41-11.11l-4.24-2.26,.06-.36c3.43-19.5,17.84-32.87,17.99-33l.27-.25,55.18,32.77,77.31-41.61,.26,.21c15,11.92,15.89,30.8,15.9,30.99v.36s-7.13,2.61-7.13,2.61c2.33,5.18,11.02,13.62,13.01,15.5,8.12-8.41,14.59-24.6,10.92-34.52-6.69-16.48-27.41-23.92-29.51-24.64l-11.83,4.93c-30.05,11.91-58.14,8.6-58.42,8.57-27.44-7.35-68.07-10.63-78.36-11.37Z" fill="#002346"></path>
  </g>
  <g>
    <path d="M376.24,211.25c1.62,4.17,12.05,29.75,23.72,28.51,.24-.03,.43-.23,.44-.47,.1-2.87-.36-19.85-23.79-28.4-.23-.08-.46,.14-.37,.36Z" fill="#d5aecb"></path>
    <path d="M399.14,240.3c-11.55,0-21.45-23.96-23.36-28.87h0c-.11-.29-.05-.6,.17-.82,.22-.22,.54-.3,.84-.19,23.59,8.6,24.23,25.57,24.12,28.88-.02,.49-.4,.9-.88,.95-.29,.03-.59,.05-.88,.05Zm-22.25-28.78c1.78,4.47,11.56,27.78,22.25,27.78,.26,0,.51-.01,.77-.04,.1-3.17-.52-19.32-23.02-27.74Z" fill="#002346"></path>
  </g>
  <circle cx="446.54" cy="106.04" r="86.05" fill="#d5aecb"></circle>
  <g opacity=".8">
    <circle cx="446.54" cy="106.04" r="86.05" fill="#fff"></circle>
  </g>
  <path d="M446.54,192.59c-47.72,0-86.55-38.83-86.55-86.55s38.83-86.55,86.55-86.55,86.55,38.83,86.55,86.55-38.83,86.55-86.55,86.55Zm0-172.1c-47.17,0-85.55,38.38-85.55,85.55s38.38,85.55,85.55,85.55,85.55-38.38,85.55-85.55-38.38-85.55-85.55-85.55Z" fill="#002346"></path>
  <path d="M446.54,175.17c-38.12,0-69.14-31.01-69.14-69.13s31.01-69.13,69.14-69.13,69.13,31.01,69.13,69.13-31.01,69.13-69.13,69.13Zm0-137.27c-37.57,0-68.14,30.57-68.14,68.13s30.57,68.13,68.14,68.13,68.13-30.57,68.13-68.13-30.56-68.13-68.13-68.13Z" fill="#002346"></path>
  <g>
    <path d="M492.99,238.96l-4.6-5.55s-.02,0-.02,0c-.23,2.57-2.04,7.61-3.18,10.58-.73,1.87-1.18,3.83-1.35,5.83-1.25,17.36,9.77,34.66,9.77,34.66-45.02,12.79-87.96-.83-87.96-.83,2.61-8.31,4.59-16.79,5.9-25.39,.86-5.63-.07-11.39-2.62-16.48l-4.86-9.73c-.1-.2-.38-.19-.47,.01l-3.05,7.21c-.04,.09-.17,.07-.18-.04-.75-20.11-21.75-27.73-24.12-28.53-.1-.04-.14-.16-.06-.24,2.69-2.84,39.7-40.35,100.94-24.53,5.59,1.46,10.86,3.93,15.56,7.29,7.25,5.15,18.78,13.67,26.52,21.1,0,.04,2.07,20.71-23.71,25.52-.94,.17-1.9-.16-2.5-.89Z" fill="#d5aecb"></path>
    <path d="M452.58,290.42c-26.79,0-46.79-6.2-47.08-6.29l-.48-.15,.15-.48c2.6-8.25,4.58-16.77,5.88-25.32,.84-5.54-.04-11.13-2.57-16.18l-4.63-9.26-2.85,6.73c-.11,.26-.38,.4-.65,.35-.28-.05-.48-.28-.49-.57-.73-19.77-21.43-27.28-23.78-28.07-.21-.07-.37-.24-.42-.46-.05-.21,0-.44,.16-.6,1.1-1.16,11.22-11.52,28.67-19.37,22.58-10.15,47.06-11.93,72.75-5.3,5.67,1.48,10.96,3.96,15.73,7.36,7.98,5.67,19.06,13.94,26.57,21.14l.15,.15v.21c.07,.83,1.52,21.22-24.12,26.01-1.12,.21-2.26-.2-2.98-1.06l-3.9-4.71c-.54,2.81-2.09,7.1-3.05,9.6-.71,1.83-1.16,3.74-1.32,5.69-1.22,16.98,9.59,34.18,9.7,34.35l.36,.57-.65,.18c-14.33,4.07-28.51,5.46-41.17,5.46Zm-46.3-7.1c4.81,1.41,44.96,12.46,86.57,.86-1.87-3.16-10.62-18.83-9.5-34.39,.17-2.05,.63-4.06,1.38-5.97,1.07-2.81,2.91-7.9,3.15-10.45l.03-.34,.66-.2,.22,.27,4.59,5.54c.48,.58,1.26,.86,2.03,.72,23.81-4.45,23.45-22.67,23.32-24.8-7.47-7.13-18.42-15.3-26.32-20.92-4.67-3.33-9.85-5.76-15.4-7.21-25.47-6.58-49.73-4.82-72.09,5.24-16.01,7.2-25.77,16.52-27.97,18.75,3.93,1.42,22.08,8.95,23.82,27.08l2.39-5.63c.12-.28,.38-.45,.68-.46,.31,0,.57,.15,.7,.42l4.86,9.73c2.62,5.24,3.54,11.04,2.66,16.78-1.29,8.43-3.23,16.84-5.76,24.98Zm-6.19-44.24s0,0,0,0h0Z" fill="#002346"></path>
  </g>
  <g>
    <path d="M433.59,70.95s13.6-8.84,36.01-12.6c1.87-.31,3.77,.28,5.13,1.6,8.19,7.98,34.65,39.76,16.4,103.73,0,0,11.56-2.21,11.81,3.7,0,0,.98,3.44-4.43,4.67,0,0,6.14,2.96-1.47,5.9,0,0-16.57,4.82-38.62,.64-8.13-1.55-16.41-2.09-24.67-1.6-5.63,.27-11.24,.91-16.79,1.94,0,0-26.2,7.14-26.93-4.67,0,0,0-5.9,13.53-5.66,0,0-16.57-46.11,2.01-94.43,.45-1.16,1.32-2.11,2.44-2.66,5.15-2.51,20.09-8.87,25.58-.57Z" fill="#002346"></path>
    <path d="M401.94,181.59c-3.72,0-7.31-.56-9.66-2.24-1.69-1.21-2.62-2.91-2.75-5.04,0-.09,.02-1.54,1.52-3.01,1.5-1.47,4.74-3.19,11.73-3.19h.08c-1.93-5.9-14.98-49.32,2.25-94.11,.5-1.28,1.45-2.32,2.69-2.92,5.92-2.89,20.15-8.68,25.94-.79,2.45-1.48,15.66-9.04,35.79-12.42,2.01-.33,4.09,.31,5.56,1.73,8.46,8.24,34.58,39.98,16.75,103.47,2.04-.29,7.45-.83,10.1,1.27,.94,.75,1.45,1.75,1.52,2.98,.06,.28,.25,1.4-.45,2.59-.61,1.03-1.7,1.81-3.24,2.33,.76,.56,1.65,1.46,1.61,2.59-.05,1.37-1.41,2.55-4.13,3.61-.21,.06-16.98,4.82-38.9,.67-8.08-1.55-16.34-2.08-24.55-1.59-5.6,.26-11.22,.92-16.72,1.93-.45,.12-8.03,2.15-15.12,2.15Zm.83-12.49c-12,0-12.24,5.12-12.24,5.17,.11,1.81,.88,3.21,2.33,4.25,6.45,4.62,23.8-.02,23.97-.07,5.59-1.04,11.26-1.69,16.89-1.96,8.29-.5,16.63,.04,24.79,1.61,21.67,4.11,38.23-.58,38.39-.63,2.18-.84,3.42-1.81,3.45-2.7,.04-1.03-1.47-1.99-2.06-2.27l-1.28-.62,1.39-.32c1.86-.42,3.11-1.15,3.72-2.16,.58-.97,.35-1.86,.34-1.89l-.02-.11c-.04-.96-.41-1.71-1.14-2.29-2.88-2.28-10.01-.96-10.08-.94l-.8,.15,.22-.78c18.11-63.47-7.88-95.07-16.27-103.24-1.24-1.2-2.99-1.74-4.7-1.46-22.04,3.69-35.68,12.44-35.82,12.52l-.42,.27-.27-.41c-5.31-8.03-20.43-1.46-24.94,.74-1,.5-1.78,1.34-2.19,2.39-18.3,47.58-2.17,93.62-2.01,94.08l.24,.68h-.72c-.27-.02-.53-.02-.78-.02Z" fill="#0d2445"></path>
  </g>
  <g>
    <path d="M461.14,184.58l-4.68-27.78h-18.2l-1.76,25.1-.32,2.7-11.05,3.4c-.05,.02-.06,.09,0,.12,27.71,13.31,44.61,.17,46.01-.98,.04-.03,.02-.1-.03-.11l-9.97-2.45Z" fill="#f2b3c1"></path>
    <path d="M449,194.57c-6.71,0-14.79-1.53-24.09-5.99l-.31-.15v-.41c.01-.23,.17-.42,.39-.49l10.74-3.3,.28-2.38,1.79-25.54h19.09l4.69,27.87,9.95,2.45,.12,.35c.05,.21-.03,.42-.19,.56-1.22,1-9.12,7.04-22.45,7.04Zm-22.64-6.42c24.46,11.29,40.02,1.88,43.75-.85l-9.4-2.31-4.66-27.68h-17.31l-1.73,24.64-.36,3.05-10.28,3.17Zm44.63-.63s0,0,0,0h0Z" fill="#002346"></path>
  </g>
  <g>
    <path d="M337.47,259.16s34.62-40.36,43.72-46.27c0,0,8.48,3.28,15.43,13.45,0,0-22.31,18.78-39.29,37.47l-19.86-4.65Z" fill="#f2b3c1"></path>
    <path d="M357.5,264.36l-20.95-4.9,.54-.62c1.42-1.65,34.77-40.49,43.83-46.36l.21-.14,.24,.09c.35,.14,8.7,3.45,15.66,13.63l.26,.37-.35,.29c-.22,.19-22.48,18.97-39.24,37.42l-.2,.22Zm-19.11-5.5l18.77,4.39c15.63-17.17,35.9-34.54,38.79-37-6.1-8.72-13.33-12.19-14.71-12.79-8.62,5.85-38.47,40.32-42.86,45.41Z" fill="#002346"></path>
  </g>
  <g>
    <path d="M517.5,292.9c-2.77,2.08-5.81,3.76-9.06,4.95-59.11,21.58-114.88,.54-127.35-4.79-.21-.09-.36,.21-.16,.33l6.49,3.97c1.03,.63,.97,2.16-.12,2.7-7.94,3.89-31.27,18.24-33.7,51.77-.02,.26-.29,.43-.52,.31-3.47-1.74-24.71-13.43-38.38-45.12-2.47-5.72-2.33-12.21,.41-17.8,3.54-7.24,9.73-16.99,19.14-22.46,0,0,56.2,13.5,75.12,17.38,0,0,41.05,12.49,84.25,.42,0,0,66.82-17.05,74.56-17.8,0,0,11.32,15.66,18.23,28.28,4.42,8.06,3.02,18.11-3.51,24.59-8.12,8.07-22.37,19.23-44.14,26.54-.28,.09-.56-.14-.5-.43,.94-5.08,9.03-37.6-20.76-52.83h0Z" fill="#d6ccd7"></path>
    <path d="M353.24,352.68c-.13,0-.26-.03-.38-.09-4.06-2.03-24.99-13.78-38.62-45.37-2.53-5.87-2.38-12.51,.42-18.22,3.57-7.29,9.82-17.14,19.33-22.67l.17-.1,.19,.05c.56,.13,56.41,13.54,75.1,17.37,.45,.14,41.46,12.32,84.02,.43,2.74-.7,66.95-17.07,74.65-17.82l.29-.03,.17,.23c.11,.16,11.41,15.83,18.27,28.33,4.52,8.24,3.04,18.6-3.59,25.18-8.17,8.11-22.48,19.32-44.33,26.66-.3,.1-.63,.04-.87-.17-.24-.21-.34-.51-.29-.82,.04-.24,.1-.53,.17-.88,6.09-30.41-7.66-44.66-20.39-51.27-2.8,2.06-5.81,3.69-8.94,4.83-54.87,20.03-107.44,3.16-124.11-3.34l3.18,1.95c.65,.4,1.01,1.09,.98,1.84-.04,.75-.46,1.4-1.13,1.73-7.22,3.54-30.98,17.71-33.42,51.36-.02,.29-.19,.55-.44,.7-.13,.08-.28,.11-.42,.11Zm-18.91-85.39c-9.2,5.43-15.28,15.03-18.77,22.15-2.67,5.45-2.82,11.78-.4,17.38,13.29,30.82,33.54,42.53,37.96,44.78,2.55-34.04,26.63-48.4,33.96-51.99,.34-.17,.56-.5,.58-.88,.02-.39-.17-.74-.5-.94l-6.49-3.97c-.31-.19-.42-.58-.25-.9,.16-.32,.54-.46,.87-.31,10.78,4.61,67.53,26.48,126.98,4.78,3.14-1.14,6.14-2.79,8.94-4.88l.25-.19,.28,.14c13.12,6.71,27.45,21.26,21.2,52.5-.05,.25-.09,.47-.13,.66,21.56-7.28,35.69-18.34,43.76-26.36,6.32-6.28,7.72-16.14,3.42-24-6.36-11.61-16.59-25.98-18.03-27.99-8.84,1.09-73.54,17.59-74.2,17.76-42.84,11.96-84.11-.31-84.52-.43-18.11-3.71-71.23-16.44-74.89-17.32Z" fill="#002346"></path>
  </g>
  <g>
    <path d="M478.15,344.9s32.52-9.1,46.29-15.1l7.29-2.66s-1.02-20.12-15.71-30.61l-78.03,41.77,13.5,8.18s1.53,.32,6.82-3.33c0,0,4.9-5.51,13.13-.72l6.7,2.48Z" fill="#f2b3c1"></path>
    <path d="M451.61,346.99c-.11,0-.18-.01-.22-.02l-.16-.06-14.25-8.64,.77-.41,78.31-41.92,.25,.18c14.72,10.51,15.91,30.79,15.92,31l.02,.37-7.64,2.79c-13.62,5.94-46,15.02-46.33,15.12l-.16,.04-6.85-2.54c-7.87-4.56-12.54,.54-12.58,.59l-.09,.08c-4.44,3.07-6.34,3.43-6.98,3.43Zm-12.62-8.67l12.65,7.67c.31-.02,2.01-.24,6.34-3.22,.54-.56,5.65-5.46,13.71-.77l6.47,2.39c2.46-.69,32.98-9.33,46.07-15.04l6.97-2.55c-.23-2.74-2.2-20.19-15.22-29.69l-76.98,41.21Z" fill="#002346"></path>
  </g>
  <g>
    <path d="M408.11,351.61l-17.32,11.63c-.51,.34-.65,1.04-.31,1.55,.1,.15,.24,.28,.41,.37l11.19,6c.23,.13,.5,.17,.76,.11l41.1-8.77s-23.16-5.95-35.83-10.89Z" fill="#f2b3c1"></path>
    <path d="M402.6,371.8c-.26,0-.53-.07-.77-.2l-11.18-6c-.23-.12-.44-.31-.58-.53-.24-.36-.33-.79-.24-1.22s.33-.79,.69-1.03l17.54-11.77,.24,.09c12.5,4.87,35.54,10.81,35.77,10.87l2.06,.53-43.18,9.21c-.11,.03-.23,.04-.34,.04Zm5.57-19.63l-17.1,11.48c-.14,.09-.23,.23-.26,.39-.03,.16,0,.33,.09,.47,.06,.08,.13,.16,.23,.2l11.19,6c.13,.07,.27,.09,.41,.06l39.05-8.33c-5.9-1.56-23.22-6.26-33.61-10.28Z" fill="#002346"></path>
  </g>
  <g>
    <ellipse cx="481.66" cy="132.01" rx="7.34" ry="8.69" fill="#f2b3c1"></ellipse>
    <path d="M481.66,141.21c-4.32,0-7.84-4.12-7.84-9.19s3.52-9.19,7.84-9.19,7.84,4.12,7.84,9.19-3.52,9.19-7.84,9.19Zm0-17.38c-3.77,0-6.84,3.67-6.84,8.19s3.07,8.19,6.84,8.19,6.84-3.67,6.84-8.19-3.07-8.19-6.84-8.19Z" fill="#002346"></path>
  </g>
  <g>
    <ellipse cx="414.49" cy="132.01" rx="7.49" ry="8.69" fill="#f2b3c1"></ellipse>
    <path d="M414.49,141.21c-4.41,0-7.99-4.12-7.99-9.19s3.58-9.19,7.99-9.19,7.99,4.12,7.99,9.19-3.58,9.19-7.99,9.19Zm0-17.38c-3.85,0-6.99,3.67-6.99,8.19s3.14,8.19,6.99,8.19,6.99-3.67,6.99-8.19-3.14-8.19-6.99-8.19Z" fill="#002346"></path>
  </g>
  <g>
    <path d="M494.23,239.37c1.55-3.82,9.36-21.27,24.37-24.88,.32-.08,.63,.16,.65,.49,.14,3.51-.39,20.76-24.52,25-.34,.06-.63-.28-.5-.61Z" fill="#d5aecb"></path>
    <path d="M494.65,240.49c-.29,0-.56-.13-.74-.36-.21-.27-.27-.63-.14-.94h0c1.44-3.56,9.4-21.49,24.72-25.18,.3-.07,.61,0,.86,.18,.25,.19,.39,.47,.41,.77,.14,3.5-.38,21.2-24.93,25.51-.05,0-.11,.01-.16,.01Zm24.09-25.48c-14.78,3.53-22.55,20.87-24.03,24.49,23.65-4.19,24.16-21.14,24.03-24.49Z" fill="#002346"></path>
  </g>
  <g>
    <path d="M499.96,229.21s23.17,14.84,41.38,35.99l18.53-5.74s-31.02-34-45.36-43.5c0,0-8.01,2.94-14.55,13.25Z" fill="#f2b3c1"></path>
    <path d="M541.18,265.78l-.21-.25c-17.95-20.86-41.04-35.75-41.27-35.9l-.42-.27,.27-.42c6.56-10.33,14.47-13.33,14.8-13.45l.24-.09,.21,.14c14.22,9.43,45.14,43.24,45.45,43.58l.53,.58-19.6,6.07Zm-40.53-36.72c3.21,2.12,24.18,16.28,40.86,35.57l17.47-5.41c-4.15-4.51-31.34-33.84-44.52-42.7-1.32,.56-8.11,3.78-13.81,12.54Z" fill="#002346"></path>
  </g>
  <g>
    <path d="M321.66,271.75c-1.11-1.67-1.47-3.95,1.47-6.5,0,0,29.27-17.88,34.2-1.39,0,0,9.28-1.23,10.17,4.67,0,0,2.37,6.89-10.17,3.45,0,0-9.02,4.85-30.64,2.69-2.03-.18-3.87-1.25-5.03-2.91Z" fill="#f2b3c1"></path>
    <path d="M337.36,275.73c-3.16,0-6.73-.16-10.73-.56-2.17-.19-4.14-1.33-5.39-3.12h0c-1.12-1.69-1.76-4.3,1.56-7.17,.84-.52,19.11-11.56,29.24-7.67,2.74,1.05,4.64,3.11,5.64,6.12,1.9-.17,9.46-.5,10.32,5.14,0,0,.72,2.14-.69,3.65-1.53,1.63-4.87,1.77-9.92,.41-1.13,.55-7.27,3.22-20.02,3.22Zm-15.29-4.26c1.08,1.55,2.78,2.53,4.66,2.7,21.18,2.12,30.27-2.58,30.36-2.63l.18-.09,.19,.05c5.94,1.63,8.24,.86,9.11-.07,1.01-1.08,.46-2.71,.46-2.73-.83-5.44-9.55-4.35-9.64-4.34l-.42,.06-.12-.41c-.87-2.91-2.61-4.89-5.17-5.87-9.67-3.71-28.11,7.43-28.29,7.54-2.15,1.87-2.62,3.84-1.32,5.79Z" fill="#002346"></path>
  </g>
  <g>
    <path d="M545.93,272.75s9.84,4.27,27.23,1.48c1.88,.19,3.65-.92,4.31-2.69,.86-2,.21-4.34-1.56-5.61-4.42-3.28-14.75-9.48-27.35-7.29,0,0-5.75,1.15-7.22,6.56,0,0-6.07-1.96-6.07,4.43,0,0-.32,5.74,10.66,3.11Z" fill="#f2b3c1"></path>
    <path d="M561.65,275.69c-9.3,0-14.75-2.01-15.76-2.41-6.42,1.5-9.12,.16-10.25-1.25-.73-.91-.89-1.93-.86-2.39h0c0-2.06,.6-3.54,1.78-4.4,1.51-1.1,3.52-.84,4.45-.64,1.72-5.24,7.22-6.4,7.46-6.45,12.55-2.19,22.77,3.68,27.75,7.37,1.96,1.42,2.67,3.98,1.72,6.21-.72,1.94-2.67,3.17-4.76,3-4.32,.69-8.17,.95-11.53,.95Zm-15.67-3.46l.15,.07c.1,.04,9.93,4.18,26.95,1.45h.06s.06,0,.06,0c1.66,.17,3.21-.81,3.79-2.37,.78-1.82,.21-3.88-1.38-5.03-4.85-3.6-14.8-9.32-26.97-7.2-.04,0-5.45,1.16-6.82,6.2l-.14,.5-.5-.16s-2.48-.78-4.05,.37c-.91,.66-1.37,1.87-1.37,3.59v.12c.01,.31,.13,1.29,1.08,2.08,1.1,.91,3.55,1.72,8.96,.42l.16-.04Z" fill="#002346"></path>
  </g>
  <g>
    <path d="M452.99,346.26l-69.34-40.87s-14.38,12.36-17.83,32.72c0,0,39.72,21.65,91.39,26.32,0,0,34.37,5.17,46.51,4.97,1.94-.03,3.77-.84,5.12-2.22,2.08-2.14,5.22-5.57,6.29-7.86,.15-.35-.01-.75-.36-.9-.01,0-.02,0-.03-.01l-44-16.24s-6.52-4.05-12.42,.99c0,0-4.19,3.8-5.32,3.11Z" fill="#f2b3c1"></path>
    <path d="M503.01,369.9c-12.63,0-45.54-4.93-45.88-4.98-51.15-4.62-91.15-26.16-91.55-26.37l-.31-.17,.06-.35c3.45-20.31,17.86-32.89,18-33.02l.27-.23,69.65,41.05-.25,.43,.26-.43c.44,.24,2.7-1.21,4.72-3.05,5.85-5,12.35-1.44,12.97-1.07l43.96,16.23c.65,.28,.93,.97,.68,1.57-1.07,2.3-4.06,5.62-6.39,8.01-1.46,1.5-3.4,2.34-5.47,2.38-.23,0-.47,0-.72,0Zm-136.63-32.06c3.85,2.03,42.32,21.7,90.88,26.09,.37,.06,34.51,5.17,46.46,4.97,1.8-.03,3.5-.77,4.77-2.07,1.86-1.91,5.14-5.45,6.19-7.72,.03-.08-.01-.19-.1-.22l-44.1-16.29c-.25-.16-6.29-3.79-11.83,.95-1.33,1.21-4.59,3.95-5.9,3.16l-69.02-40.69c-1.95,1.79-14.12,13.61-17.34,31.83Z" fill="#002346"></path>
  </g>
  <g>
    <rect x="181.26" y="602.4" width="532.38" height="11.83" fill="#e6e7e8"></rect>
    <path d="M714.14,614.73H180.76v-12.83H714.14v12.83Zm-532.38-1H713.14v-10.83H181.76v10.83Z" fill="#002346"></path>
  </g>
  <g>
    <polygon points="174.9 591.48 160.9 662.9 180.39 662.9 193.11 591.48 174.9 591.48" fill="#e6e7e8"></polygon>
    <path d="M180.81,663.4h-20.52l14.2-72.42h19.22l-12.9,72.42Zm-19.3-1h18.46l12.55-70.42h-17.21l-13.8,70.42Z" fill="#002346"></path>
  </g>
  <g>
    <polygon points="720.51 591.48 733.53 662.9 713.02 662.9 702.3 591.48 720.51 591.48" fill="#e6e7e8"></polygon>
    <path d="M734.13,663.4h-21.54l-10.87-72.42h19.21l13.2,72.42Zm-20.68-1h19.48l-12.84-70.42h-17.22l10.57,70.42Z" fill="#002346"></path>
  </g>
  <g>
    <rect x="81" y="556.4" width="741" height="35" rx="17.5" ry="17.5" fill="#e6e7e8"></rect>
    <path d="M804.5,591.9H98.5c-9.93,0-18-8.08-18-18s8.07-18,18-18H804.5c9.93,0,18,8.08,18,18s-8.07,18-18,18Zm-706-35c-9.37,0-17,7.63-17,17s7.63,17,17,17H804.5c9.37,0,17-7.63,17-17s-7.63-17-17-17H98.5Z" fill="#002346"></path>
  </g>
  <g>
    <path d="M252.8,543.3c-4.33,3.41-11.05,1.58-12.99-3.61,0,.01-48.79-126.03-48.79-126.03-4.09-10.08,11.91-16.35,15.7-6.08-.98,5.29,59.49,134.69,46.08,135.72Z" fill="#d5aecb"></path>
    <path d="M247.71,545.53c-.82,0-1.66-.11-2.47-.34-2.77-.78-4.92-2.72-5.89-5.32l.08-.03c-.32-.59-.92-2.16-2.49-6.2l-24.8-64.05c-11.05-28.54-21.48-55.5-21.58-55.74-1.22-2.99-.84-5.95,1.05-8.34,2.13-2.68,5.83-4.11,9.19-3.57,3,.48,5.27,2.42,6.39,5.47l.05,.13-.03,.14c-.29,1.57,6.54,18,13.78,35.4,16.15,38.82,38.27,91.99,33.58,99.64-.37,.61-.92,.97-1.58,1.07-1.51,1.15-3.38,1.75-5.29,1.75Zm-7.56-6.37l.13,.36c.86,2.3,2.76,4.02,5.22,4.71,2.45,.69,5.06,.19,6.99-1.32l.12-.09h.15c.42-.04,.72-.24,.96-.62,4.42-7.21-18.49-62.29-33.65-98.74-9.07-21.81-13.91-33.55-13.86-35.8-1.01-2.63-2.98-4.31-5.58-4.73-3.03-.49-6.34,.8-8.25,3.21-1.66,2.09-1.98,4.69-.91,7.34l-.05,.02c.53,1.2,3.38,8.56,21.63,55.73,12.03,31.08,25.58,66.09,27.08,69.94h0Z" fill="#002346"></path>
  </g>
  <line x1="205.17" y1="451.67" x2="228.55" y2="512.68" fill="none"></line>
  <g>
    <path d="M228.55,513.44c-1.4,.27-23.39-61-24.09-61.49-.14-.4,.08-.83,.47-.96,1.94-.86,23.4,60.98,24.34,61.43,.21,.48-.18,1.08-.72,1.03Z" fill="#002346"></path>
    <path d="M228.61,513.95s-.05,0-.08,0c-.9-.02-2.43-3.08-17.18-42.59-3.48-9.31-6.76-18.12-7.26-19.05l-.06-.04-.05-.15c-.22-.66,.13-1.37,.78-1.6,.12-.05,.3-.05,.46,.02,1.5,.63,6.69,14.13,17.06,42.27,3.44,9.35,6.7,18.18,7.3,19.21l.06,.03,.08,.17c.17,.4,.11,.87-.15,1.23-.23,.32-.59,.5-.96,.5Zm-23.69-62.17c.46,.81,1.75,4.18,7.37,19.22,5.94,15.91,14.85,39.78,16.41,41.92,.03-.02,.06-.05,.07-.07,.04-.06,.08-.15,.04-.23-.54-.81-1.84-4.22-7.47-19.48-5.79-15.71-14.45-39.23-16.4-41.56-.04,.06-.05,.13-.03,.2Zm.21-.34s-.02,0-.03,.01c0,0,.02,0,.03-.01Z" fill="#002346"></path>
  </g>
  <g>
    <path d="M266.94,554.24h-73.14c-2.02,0-3.64-1.65-3.64-3.66-.16-1.25,21.49-77.93,21.6-79.12,.23-1.2,2.15-.73,1.71,.47,0,0-21.46,78.17-21.46,78.17-.35,1.16,.58,2.38,1.79,2.36-.28,.89,79.77-2.31,73.14,1.78Z" fill="#002346"></path>
    <path d="M267.08,554.74h-73.28c-1.11,0-2.15-.44-2.93-1.22-.78-.79-1.21-1.83-1.21-2.94-.09-.67,4.24-16.43,13.99-51.5,3.86-13.89,7.51-27.01,7.61-27.68,.1-.56,.44-.94,.93-1.08,.53-.15,1.13,0,1.5,.4,.34,.37,.43,.87,.25,1.38-.03,.11-21.45,78.13-21.45,78.13-.12,.41-.04,.84,.22,1.19,.27,.35,.69,.56,1.07,.54h.69s-.04,.11-.04,.11c1.98,.12,9.61,0,18.31-.15,41.61-.69,54.47-.3,55.05,1.65,.08,.28,.04,.69-.6,1.09l-.12,.07Zm-54.48-83.48s-.09,0-.12,.02c-.12,.04-.2,.12-.22,.27-.04,.42-2.24,8.38-7.64,27.8-5.85,21.05-13.86,49.88-13.95,51.22,0,.85,.32,1.64,.92,2.24s1.38,.93,2.23,.93h72.77c-3.83-1.64-36.15-1.1-53.8-.81-15.5,.26-18.41,.25-19.11,.03-.68-.03-1.32-.37-1.74-.93-.45-.6-.6-1.37-.39-2.07l20.53-74.8c.55-2,.81-2.94,.99-3.38l-.06-.02c.07-.2,.01-.3-.04-.36-.08-.09-.23-.14-.36-.14Z" fill="#002346"></path>
  </g>
  <g>
    <g>
      <path d="M336.35,544.2h228.01c3.02,0,5.47,2.45,5.47,5.46h0c0,3.02-2.45,5.46-5.47,5.46h-228.01c-3.02,0-5.47-2.45-5.47-5.46h0c0-3.02,2.45-5.46,5.47-5.46Z" fill="#002346"></path>
      <path d="M564.36,555.63h-228.01c-3.29,0-5.97-2.68-5.97-5.96s2.68-5.97,5.97-5.97h228.01c3.29,0,5.97,2.68,5.97,5.97s-2.68,5.96-5.97,5.96Zm-228.01-10.93c-2.74,0-4.97,2.23-4.97,4.97s2.23,4.96,4.97,4.96h228.01c2.74,0,4.97-2.23,4.97-4.96s-2.23-4.97-4.97-4.97h-228.01Z" fill="#002346"></path>
    </g>
    <g>
      <rect x="327.07" y="398.04" width="248.86" height="146.42" rx="10.84" ry="10.84" fill="#d6ccd7"></rect>
      <path d="M565.09,544.96h-227.18c-6.25,0-11.34-5.09-11.34-11.34v-124.74c0-6.25,5.09-11.34,11.34-11.34h227.18c6.25,0,11.34,5.09,11.34,11.34v124.74c0,6.25-5.09,11.34-11.34,11.34Zm-227.18-146.42c-5.7,0-10.34,4.64-10.34,10.34v124.74c0,5.7,4.64,10.34,10.34,10.34h227.18c5.7,0,10.34-4.64,10.34-10.34v-124.74c0-5.7-4.64-10.34-10.34-10.34h-227.18Z" fill="#002346"></path>
    </g>
  </g>
  <g>
    <g>
      <path d="M765.91,500.53s1.39-31.67-2.09-47.34c-.58-2.64-1.83-5.09-3.63-7.11-7.09-7.98-29.1-32.28-47.8-47.97,0,0,17.51-3.64,34.05,6.33v10.7s3.65-8.51,3.65-8.51c0,0,20.43,12.17,18.48,45.49l-.97,32.11-1.7,16.3Z" fill="#7cd295"></path>
      <path d="M765.48,500.51c.01-.32,1.35-31.79-2.08-47.23-.57-2.56-1.79-4.96-3.53-6.92-8.27-9.3-29.48-32.6-47.75-47.92l-.67-.56,.86-.18c.18-.04,17.87-3.56,34.36,6.38l.21,.12v8.87s3.03-7.06,3.03-7.06l.42,.25c.21,.12,20.63,12.68,18.69,45.87l-.97,32.14-1.7,16.3-.85-.06Zm-19.46-83.29v-12.53c-14.04-8.36-28.91-6.86-32.65-6.3,18.15,15.36,38.96,38.22,47.14,47.42,1.84,2.07,3.13,4.6,3.72,7.3,2.19,9.87,2.46,26.21,2.35,36.9l.61-5.79,.97-32.12c1.76-30.04-15.01-42.87-17.87-44.83l-4.27,9.95Z" fill="#002346"></path>
    </g>
    <g>
      <path d="M731.24,526.92c0,15.37,11.01,28.53,26.13,31.25h0c17.28,3.08,33.78-8.43,36.86-25.7,.33-1.83,.49-3.68,.49-5.54,.01-7.76-2.83-15.26-7.99-21.06l-34.39-.24-12.82-.09c-5.34,5.84-8.3,13.48-8.28,21.39Z" fill="#d5aecb"></path>
      <path d="M757.3,558.59c-15.34-2.76-26.48-16.08-26.48-31.66-.01-8.04,2.97-15.74,8.4-21.68l.13-.14,47.59,.33,.13,.14c5.23,5.89,8.11,13.47,8.09,21.35,0,1.88-.17,3.77-.5,5.62-1.51,8.47-6.23,15.84-13.28,20.76-5.46,3.81-11.83,5.8-18.35,5.8-1.9,0-3.81-.17-5.72-.51Zm-17.58-52.63c-5.2,5.76-8.06,13.2-8.05,20.97h0c0,15.18,10.84,28.14,25.78,30.83,8.24,1.47,16.57-.36,23.43-5.15,6.87-4.79,11.46-11.97,12.93-20.21,.32-1.8,.48-3.64,.49-5.47,.01-7.6-2.74-14.93-7.75-20.64l-46.83-.33Z" fill="#002346"></path>
    </g>
    <g>
      <path d="M769.69,505.75v-2.88c-.04-3.79,1.46-7.43,4.16-10.09l48.09-47.26s-23.13-2.92-34.14,6.29l-.23,12.57-3.81-9.88s-20.66,8.76-18.87,51.21l4.8,.03Z" fill="#7cd295"></path>
      <path d="M764.48,506.14l-.02-.4c-1.79-42.26,18.92-51.53,19.13-51.62l.4-.17,3.19,8.27,.19-10.59,.15-.12c11.02-9.22,33.51-6.51,34.47-6.39l.87,.11-48.71,47.88c-2.61,2.56-4.08,6.13-4.04,9.78v3.31l-5.64-.04Zm23.74-54.12l-.27,14.55-4.43-11.48c-2.82,1.5-19.72,12.12-18.23,50.2l3.97,.03v-2.44c-.05-3.89,1.52-7.67,4.29-10.4l47.44-46.63c-4.31-.41-23.2-1.67-32.78,6.17Z" fill="#002346"></path>
    </g>
    <g>
      <path d="M758.37,505.66l-2.63-21.51c-.19-1.53-.85-2.97-1.91-4.1-6.89-7.37-34.13-36.23-49.95-49.34,0,0,18.24-1.7,34.54,6.56l.49,11.43,3.65-8.76s17.76,9.98,18.24,44.73v20.96s-2.43,.02-2.43,.02Z" fill="#7cd295"></path>
      <path d="M755.31,484.2c-.18-1.45-.8-2.79-1.8-3.86-5.49-5.88-33.69-35.87-49.91-49.3l-.79-.66,1.02-.1c.18-.02,18.56-1.62,34.77,6.61l.22,.11,.41,9.77,3.1-7.43,.42,.23c.18,.1,17.98,10.5,18.46,45.1v21.38s-3.24,.02-3.24,.02l-2.68-21.89Zm5.06,.49c-.43-31.13-14.98-42.33-17.62-44.11l-4.19,10.06-.56-13.1c-13.72-6.88-28.95-6.67-33.03-6.47,16.37,13.77,43.77,42.9,49.17,48.69,1.12,1.2,1.82,2.7,2.02,4.33l2.58,21.14h1.63s0-20.54,0-20.54Z" fill="#002346"></path>
    </g>
  </g>
  <g>
    <rect x="415.5" y="71.4" width="64" height="92" rx="32" ry="32" fill="#f2b3c1"></rect>
    <path d="M447.5,163.9c-17.92,0-32.5-14.58-32.5-32.5v-28c0-17.92,14.58-32.5,32.5-32.5s32.5,14.58,32.5,32.5v28c0,17.92-14.58,32.5-32.5,32.5Zm0-92c-17.37,0-31.5,14.13-31.5,31.5v28c0,17.37,14.13,31.5,31.5,31.5s31.5-14.13,31.5-31.5v-28c0-17.37-14.13-31.5-31.5-31.5Z" fill="#002346"></path>
  </g>
  <g>
    <path d="M432.36,84.57s24.08,42.27,59.62,36.81c0,0,2.24-38.65-34.13-49.99,0,0-32.34-9.05-47.99,27.52,0,0-3.76,10.19-3.85,16.75,0-.03,14.08-1.64,26.36-31.09Z" fill="#002346"></path>
    <path d="M485.71,122.36c-29.28,0-49.82-31.1-53.28-36.69-11.58,27.15-24.82,30.21-26.31,30.48l-.11-.48h-.51s.01-.43,.01-.43c.23-6.57,3.72-16.09,3.87-16.5,15.65-36.58,48.27-27.92,48.6-27.83,36.33,11.33,34.52,50.11,34.49,50.5l-.02,.4-.4,.06c-2.15,.33-4.27,.49-6.34,.49Zm-53.43-38.92l.5,.88c.22,.39,21.5,37.04,52.92,37.04,1.89,0,3.81-.13,5.78-.41,.09-4.14-.21-38.61-33.79-49.08-.3-.09-32.09-8.49-47.38,27.24-.03,.08-3.49,9.51-3.79,15.92,2.97-.77,14.83-5.37,25.38-30.66l.39-.94Z" fill="#0d2445"></path>
  </g>
  <path d="M328.5,274.4h0c-.28,0-.5-.22-.5-.5,0-.3,.06-7.32,5.24-10.43,.24-.14,.54-.06,.69,.17s.07,.54-.17,.69c-4.69,2.82-4.76,9.5-4.76,9.57,0,.28-.22,.5-.5,.5Z" fill="#002346"></path>
  <path d="M334.5,274.4h0c-.28,0-.5-.22-.5-.5,0-.3,.06-7.32,5.24-10.43,.24-.14,.54-.06,.69,.17s.07,.54-.17,.69c-4.69,2.82-4.76,9.5-4.76,9.57,0,.28-.22,.5-.5,.5Z" fill="#002346"></path>
  <path d="M340.5,274.4h0c-.28,0-.5-.22-.5-.5,0-.3,.06-7.32,5.24-10.43,.24-.14,.54-.06,.69,.17s.07,.54-.17,.69c-4.69,2.82-4.76,9.5-4.76,9.57,0,.28-.22,.5-.5,.5Z" fill="#002346"></path>
  <path d="M347.5,274.4h0c-.28,0-.5-.22-.5-.5,0-.3,.06-7.32,5.24-10.43,.24-.14,.54-.06,.69,.17s.07,.54-.17,.69c-4.69,2.82-4.76,9.5-4.76,9.57,0,.28-.22,.5-.5,.5Z" fill="#002346"></path>
  <path d="M572.5,275.4c-.28,0-.5-.22-.5-.5,0-.07-.06-6.76-4.76-9.57-.24-.14-.31-.45-.17-.69,.14-.24,.45-.32,.69-.17,5.18,3.11,5.24,10.13,5.24,10.43,0,.28-.22,.5-.5,.5h0Z" fill="#002346"></path>
  <path d="M566.5,275.4c-.28,0-.5-.22-.5-.5,0-.07-.06-6.76-4.76-9.57-.24-.14-.31-.45-.17-.69,.14-.24,.45-.32,.69-.17,5.18,3.11,5.24,10.13,5.24,10.43,0,.28-.22,.5-.5,.5h0Z" fill="#002346"></path>
  <path d="M560.5,275.4c-.28,0-.5-.22-.5-.5,0-.07-.06-6.76-4.76-9.57-.24-.14-.31-.45-.17-.69,.14-.24,.45-.32,.69-.17,5.18,3.11,5.24,10.13,5.24,10.43,0,.28-.22,.5-.5,.5h0Z" fill="#002346"></path>
  <path d="M553.5,275.4c-.28,0-.5-.22-.5-.5,0-.07-.06-6.76-4.76-9.57-.24-.14-.31-.45-.17-.69,.14-.24,.45-.32,.69-.17,5.18,3.11,5.24,10.13,5.24,10.43,0,.28-.22,.5-.5,.5h0Z" fill="#002346"></path>
  <path d="M844.38,663.4H21.38c-.28,0-.5-.22-.5-.5s.22-.5,.5-.5H844.38c.28,0,.5,.22,.5,.5s-.22,.5-.5,.5Z" fill="#002346"></path>
  <path d="M380.92,293.89c-.07,0-.14-.01-.21-.04l-25.42-11.48c-.25-.11-.36-.41-.25-.66,.11-.25,.41-.36,.66-.25l25.42,11.48c.25,.11,.36,.41,.25,.66-.08,.18-.27,.29-.46,.29Z" fill="#002346"></path>
  <path d="M517.5,293.4c-.16,0-.32-.08-.42-.22-.15-.23-.09-.54,.14-.69,.09-.06,9.09-6.07,17.97-12.98,.22-.17,.53-.13,.7,.09,.17,.22,.13,.53-.09,.7-8.91,6.93-17.94,12.96-18.03,13.02-.09,.06-.18,.08-.28,.08Z" fill="#002346"></path>
</svg>
